<?xml version="1.0" standalone="no"?>
<!DOCTYPE svg PUBLIC "-//W3C//DTD SVG 20010904//EN"
 "http://www.w3.org/TR/2001/REC-SVG-20010904/DTD/svg10.dtd">
<svg version="1.0" xmlns="http://www.w3.org/2000/svg"
 width="617.000000pt" height="543.000000pt" viewBox="0 0 617.000000 543.000000"
 preserveAspectRatio="xMidYMid meet">

<g transform="translate(0.000000,543.000000) scale(0.100000,-0.100000)"
fill="#000000" stroke="none">
<path d="M1965 4603 c-146 -36 -355 -121 -355 -144 0 -5 -4 -9 -10 -9 -13 0
-49 -30 -128 -105 -87 -84 -188 -246 -220 -355 -66 -223 -69 -374 -13 -645 10
-47 50 -156 62 -170 5 -5 9 -14 9 -21 0 -16 68 -132 105 -179 73 -92 150 -175
187 -200 101 -67 129 -84 166 -100 23 -10 42 -22 42 -27 0 -4 13 -8 29 -8 17
0 32 -4 35 -9 6 -9 40 -16 138 -29 54 -7 91 -22 54 -22 -18 0 -239 -214 -297
-289 -44 -57 -135 -184 -203 -286 -30 -44 -64 -91 -75 -104 -12 -13 -21 -27
-21 -31 0 -3 -8 -15 -17 -26 -10 -10 -40 -50 -68 -87 -97 -132 -206 -273 -242
-312 -94 -105 -256 -264 -323 -318 -75 -60 -217 -137 -252 -137 -10 0 -26 -5
-36 -10 -9 -6 -57 -16 -107 -23 -87 -12 -90 -13 -93 -40 -4 -32 -25 -29 263
-27 201 1 278 11 415 57 81 27 249 114 308 160 81 63 197 177 245 242 23 31
44 58 48 61 5 4 128 178 234 330 480 688 472 677 595 801 64 64 102 94 155
119 107 51 112 53 124 46 19 -12 52 14 49 37 -3 21 -8 22 -183 29 -232 9 -347
18 -360 29 -6 4 -33 13 -60 19 -57 13 -129 43 -203 85 -48 27 -150 122 -191
178 -36 51 -85 143 -111 212 -37 98 -40 123 -40 299 0 175 4 207 41 336 69
241 230 419 434 480 22 7 50 16 63 21 13 5 166 9 340 9 l318 0 34 -62 35 -63
3 -795 c1 -437 3 -867 4 -955 0 -88 -1 -439 -3 -780 l-4 -620 -28 -49 c-47
-84 -159 -176 -215 -176 -10 0 -22 -4 -28 -9 -5 -6 -36 -11 -69 -13 -53 -3
-60 -6 -63 -25 -2 -16 3 -24 20 -28 13 -3 277 -4 588 -3 l565 3 0 25 c0 23 -4
25 -60 31 -89 10 -142 26 -189 58 -60 43 -102 90 -128 146 l-23 50 -3 775 c-1
426 -3 836 -3 910 -1 74 -1 460 -1 858 l1 722 367 0 c202 0 381 -4 398 -9 17
-5 58 -18 91 -28 214 -65 394 -306 438 -588 19 -125 11 -457 -12 -490 -4 -5
-16 -32 -26 -60 -10 -27 -27 -66 -38 -85 -11 -19 -27 -48 -36 -65 -14 -29
-134 -154 -177 -185 -57 -42 -138 -80 -224 -106 -30 -8 -64 -20 -75 -25 -23
-10 -115 -17 -360 -27 l-170 -7 -3 -26 c-3 -24 1 -27 55 -38 55 -12 134 -48
178 -81 54 -40 169 -167 250 -275 50 -66 92 -125 95 -131 3 -6 24 -38 48 -70
23 -32 78 -110 121 -171 43 -62 85 -123 94 -135 9 -13 40 -57 69 -98 28 -41
57 -80 62 -87 6 -7 27 -35 46 -64 145 -212 288 -378 418 -484 63 -52 322 -175
368 -175 11 0 24 -4 30 -9 15 -14 85 -21 329 -31 242 -9 259 -7 253 34 -2 17
-13 22 -53 29 -148 23 -199 38 -283 80 -118 59 -240 161 -392 327 -17 19 -44
49 -59 65 -31 35 -133 161 -176 220 -16 22 -33 45 -37 50 -4 6 -29 39 -55 75
-85 119 -128 175 -135 178 -5 2 -8 8 -8 14 0 5 -20 37 -45 69 -25 33 -45 62
-45 65 0 3 -10 19 -22 34 -26 31 -55 71 -78 106 -53 79 -246 284 -303 320 -44
29 -40 44 11 44 40 1 127 21 138 33 4 4 17 7 30 7 23 0 126 49 132 62 2 5 12
8 23 8 10 0 19 4 19 9 0 5 10 13 22 17 25 8 238 218 238 234 0 6 9 20 19 32
24 25 90 146 111 203 8 22 18 45 22 50 5 9 20 65 48 192 14 58 12 352 -1 410
-71 304 -196 486 -434 629 -56 34 -159 77 -220 92 -22 5 -60 16 -85 23 -36 10
-268 14 -1120 15 -925 2 -1083 0 -1135 -13z"/>
</g>
</svg>
